<svg xmlns="http://www.w3.org/2000/svg" xmlns:xlink="http://www.w3.org/1999/xlink" id="Layer_1" width="432" height="414" x="0" y="0" enable-background="new 0 0 432 414" version="1.1" viewBox="0 0 432 414" xml:space="preserve"><line x1="360" x2="360" y1="180" y2="378" fill="none" stroke="#000" stroke-dasharray="3"/><line x1="360" x2="360" y1="144" y2="36" fill="none" stroke="#000" stroke-dasharray="3"/><line x1="324" x2="324" y1="189" y2="324" fill="none" stroke="#000" stroke-dasharray="3"/><line x1="324" x2="324" y1="153" y2="171" fill="none" stroke="#000" stroke-dasharray="3"/><line x1="324" x2="324" y1="135" y2="36" fill="none" stroke="#000" stroke-dasharray="3"/><line x1="288" x2="288" y1="306" y2="378" fill="none" stroke="#000" stroke-dasharray="3"/><line x1="288" x2="288" y1="198" y2="288" fill="none" stroke="#000" stroke-dasharray="3"/><line x1="288" x2="288" y1="126" y2="36" fill="none" stroke="#000" stroke-dasharray="3"/><line x1="288" x2="288" y1="153" y2="180" fill="none" stroke="#000" stroke-dasharray="3"/><line x1="252" x2="252" y1="207" y2="270" fill="none" stroke="#000" stroke-dasharray="3"/><line x1="252" x2="252" y1="144" y2="189" fill="none" stroke="#000" stroke-dasharray="3"/><line x1="252" x2="252" y1="117" y2="36" fill="none" stroke="#000" stroke-dasharray="3"/><line x1="216" x2="216" y1="252" y2="324" fill="none" stroke="#000" stroke-dasharray="3"/><line x1="216" x2="216" y1="216" y2="234" fill="none" stroke="#000" stroke-dasharray="3"/><line x1="216" x2="216" y1="135" y2="198" fill="none" stroke="#000" stroke-dasharray="3"/><line x1="216" x2="216" y1="117" y2="36" fill="none" stroke="#000" stroke-dasharray="3"/><line x1="180" x2="180" y1="108" y2="36" fill="none" stroke="#000" stroke-dasharray="3"/><line x1="180" x2="180" y1="126" y2="216" fill="none" stroke="#000" stroke-dasharray="3"/><line x1="108" x2="108" y1="126" y2="36" fill="none" stroke="#000" stroke-dasharray="3"/><line x1="108" x2="108" y1="144" y2="216" fill="none" stroke="#000" stroke-dasharray="3"/><line x1="396" x2="396" y1="162" y2="36" fill="none" stroke="#000" stroke-dasharray="3"/><line x1="144" x2="144" y1="108" y2="36" fill="none" stroke="#000" stroke-dasharray="3"/><line x1="72" x2="72" y1="162" y2="36" fill="none" stroke="#000" stroke-dasharray="3"/><line x1="36" x2="36" y1="216" y2="36" fill="none" stroke="#000" stroke-dasharray="3"/><line x1="252" x2="324" y1="270" y2="324" fill="none" stroke="#E4BC96" stroke-width="4"/><polyline fill="none" stroke="#E4BC96" stroke-width="4" points="288 378 324 324 360 378"/><polyline fill="none" stroke="#E4BC96" stroke-width="4" points="72 162 144 108 396 162 180 216 252 270 216 324"/><polyline fill="none" stroke="#E4BC96" stroke-width="4" points="36 216 72 162 108 216"/><circle cx="144" cy="108" r="18" fill="#FFFFF5" stroke="#8B5C29" stroke-width="2"/><circle cx="72" cy="161.999" r="18" fill="#FFFFF5" stroke="#8B5C29" stroke-width="2"/><circle cx="396" cy="161.999" r="18" fill="#FFFFF5" stroke="#8B5C29" stroke-width="2"/><circle cx="180" cy="216" r="18" fill="#FFFFF5" stroke="#8B5C29" stroke-width="2"/><circle cx="108" cy="216" r="18" fill="#FFFFF5" stroke="#8B5C29" stroke-width="2"/><circle cx="36" cy="216" r="18" fill="#FFFFF5" stroke="#8B5C29" stroke-width="2"/><circle cx="252" cy="270" r="18" fill="#FFFFF5" stroke="#8B5C29" stroke-width="2"/><circle cx="216" cy="324" r="18" fill="#FFFFF5" stroke="#8B5C29" stroke-width="2"/><circle cx="324" cy="324" r="18" fill="#FFFFF5" stroke="#8B5C29" stroke-width="2"/><circle cx="288" cy="378" r="18" fill="#FFFFF5" stroke="#8B5C29" stroke-width="2"/><circle cx="360" cy="378" r="18" fill="#FFFFF5" stroke="#8B5C29" stroke-width="2"/><rect width="396" height="36" x="18" y="18" fill="#FAFFFF" stroke="#0060B6" stroke-width="2"/><text font-family="Liberation Serif" font-size="21" font-style="normal" transform="matrix(1 0 0 1 30.75 43)">9</text><text font-family="Liberation Serif" font-size="21" font-style="normal" transform="matrix(1 0 0 1 30.75 223)">9</text><text font-family="Liberation Serif" font-size="21" font-style="normal" transform="matrix(1 0 0 1 66.75 43)">3</text><text font-family="Liberation Serif" font-size="21" font-style="normal" transform="matrix(1 0 0 1 66.75 169)">3</text><text font-family="Liberation Serif" font-size="21" font-style="normal" transform="matrix(1 0 0 1 102.75 43)">7</text><text font-family="Liberation Serif" font-size="21" font-style="normal" transform="matrix(1 0 0 1 102.75 223)">7</text><text font-family="Liberation Serif" font-size="21" font-style="normal" transform="matrix(1 0 0 1 138.75 43)">1</text><text font-family="Liberation Serif" font-size="21" font-style="normal" transform="matrix(1 0 0 1 138.75 115)">1</text><text font-family="Liberation Serif" font-size="21" font-style="normal" transform="matrix(1 0 0 1 174.75 43)">8</text><text font-family="Liberation Serif" font-size="21" font-style="normal" transform="matrix(1 0 0 1 174.75 223)">8</text><text font-family="Liberation Serif" font-size="21" font-style="normal" transform="matrix(1 0 0 1 205.5 43)">12</text><text font-family="Liberation Serif" font-size="21" font-style="normal" transform="matrix(1 0 0 1 205.5 331)">12</text><text font-family="Liberation Serif" font-size="21" font-style="normal" transform="matrix(1 0 0 1 241.5 43)">10</text><text font-family="Liberation Serif" font-size="21" font-style="normal" transform="matrix(1 0 0 1 241.5 277)">10</text><text font-family="Liberation Serif" font-size="21" font-style="normal" transform="matrix(1 0 0 1 277.5 43)">20</text><text font-family="Liberation Serif" font-size="21" font-style="normal" transform="matrix(1 0 0 1 313.5 43)">15</text><text font-family="Liberation Serif" font-size="21" font-style="normal" transform="matrix(1 0 0 1 313.5 331)">15</text><text font-family="Liberation Serif" font-size="21" font-style="normal" transform="matrix(1 0 0 1 349.5 43)">18</text><text font-family="Liberation Serif" font-size="21" font-style="normal" transform="matrix(1 0 0 1 277.5 385)">20</text><text font-family="Liberation Serif" font-size="21" font-style="normal" transform="matrix(1 0 0 1 349.5 385)">18</text><text font-family="Liberation Serif" font-size="21" font-style="normal" transform="matrix(1 0 0 1 390.75 43)">5</text><text font-family="Liberation Serif" font-size="21" font-style="normal" transform="matrix(1 0 0 1 390.75 169)">5</text><line x1="54" x2="54" y1="18" y2="54" fill="none" stroke="#0060B6" stroke-width="2"/><line x1="90" x2="90" y1="18" y2="54" fill="none" stroke="#0060B6" stroke-width="2"/><line x1="126" x2="126" y1="18" y2="54" fill="none" stroke="#0060B6" stroke-width="2"/><line x1="162" x2="162" y1="18" y2="54" fill="none" stroke="#0060B6" stroke-width="2"/><line x1="198" x2="198" y1="18" y2="54" fill="none" stroke="#0060B6" stroke-width="2"/><line x1="234" x2="234" y1="18" y2="54" fill="none" stroke="#0060B6" stroke-width="2"/><line x1="270" x2="270" y1="18" y2="54" fill="none" stroke="#0060B6" stroke-width="2"/><line x1="306" x2="306" y1="18" y2="54" fill="none" stroke="#0060B6" stroke-width="2"/><line x1="342" x2="342" y1="18" y2="54" fill="none" stroke="#0060B6" stroke-width="2"/><line x1="378" x2="378" y1="18" y2="54" fill="none" stroke="#0060B6" stroke-width="2"/><rect width="432" height="414" fill="none"/></svg>